<svg id="Layer_2" data-name="Layer 2" xmlns="http://www.w3.org/2000/svg" xmlns:xlink="http://www.w3.org/1999/xlink" viewBox="0 0 2866.7 1100" class="sc-eqUzNf cDqNVS"><defs><style>
      .cls-1 {
        fill: url(#Gradiente_sem_nome_5-5);
      }

      .cls-2 {
        fill: #0200d2;
      }

      .cls-3 {
        fill: url(#Gradiente_sem_nome_5-12);
      }

      .cls-4 {
        fill: url(#Gradiente_sem_nome_5-4);
      }

      .cls-5 {
        fill: url(#Gradiente_sem_nome_5-6);
      }

      .cls-6 {
        fill: url(#Gradiente_sem_nome_5-3);
      }

      .cls-7 {
        fill: #333;
      }

      .cls-8 {
        fill: url(#Gradiente_sem_nome_5-9);
      }

      .cls-9 {
        fill: url(#Gradiente_sem_nome_5-7);
      }

      .cls-10 {
        fill: url(#Gradiente_sem_nome_5-11);
      }

      .cls-11 {
        fill: url(#Gradiente_sem_nome_5-8);
      }

      .cls-12 {
        fill: url(#Gradiente_sem_nome_5-10);
      }

      .cls-13 {
        fill: url(#Gradiente_sem_nome_5-2);
      }

      .cls-14 {
        fill: url(#Gradiente_sem_nome_5-14);
      }

      .cls-15 {
        fill: url(#Gradiente_sem_nome_5-13);
      }

      .cls-16 {
        fill: url(#Gradiente_sem_nome_5-15);
      }

      .cls-17 {
        fill: url(#Gradiente_sem_nome_5);
      }
    </style><linearGradient id="Gradiente_sem_nome_5" data-name="Gradiente sem nome 5" x1="113.03" y1="919.72" x2="2061.53" y2="-1112.52" gradientUnits="userSpaceOnUse"><stop offset="0" stop-color="#0200d2"></stop><stop offset="1" stop-color="#fff"></stop></linearGradient><linearGradient id="Gradiente_sem_nome_5-2" data-name="Gradiente sem nome 5" x1="85.94" y1="1109.76" x2="805.24" y2="359.54" xlink:href="#Gradiente_sem_nome_5"></linearGradient><linearGradient id="Gradiente_sem_nome_5-3" data-name="Gradiente sem nome 5" x1="-98.06" y1="933.34" x2="621.24" y2="183.12" xlink:href="#Gradiente_sem_nome_5"></linearGradient><linearGradient id="Gradiente_sem_nome_5-4" data-name="Gradiente sem nome 5" x1="89.94" y1="1113.59" x2="809.24" y2="363.37" xlink:href="#Gradiente_sem_nome_5"></linearGradient><linearGradient id="Gradiente_sem_nome_5-5" data-name="Gradiente sem nome 5" x1="-136.54" y1="896.44" x2="582.76" y2="146.23" xlink:href="#Gradiente_sem_nome_5"></linearGradient><linearGradient id="Gradiente_sem_nome_5-6" data-name="Gradiente sem nome 5" x1="151.82" y1="1172.92" x2="871.12" y2="422.7" xlink:href="#Gradiente_sem_nome_5"></linearGradient><linearGradient id="Gradiente_sem_nome_5-7" data-name="Gradiente sem nome 5" x1="68.36" y1="1092.9" x2="787.66" y2="342.68" xlink:href="#Gradiente_sem_nome_5"></linearGradient><linearGradient id="Gradiente_sem_nome_5-8" data-name="Gradiente sem nome 5" x1="-63.3" y1="966.66" x2="656" y2="216.45" xlink:href="#Gradiente_sem_nome_5"></linearGradient><linearGradient id="Gradiente_sem_nome_5-9" data-name="Gradiente sem nome 5" x1="-69.61" y1="960.62" x2="649.69" y2="210.4" xlink:href="#Gradiente_sem_nome_5"></linearGradient><linearGradient id="Gradiente_sem_nome_5-10" data-name="Gradiente sem nome 5" x1="-195.51" y1="839.91" x2="523.79" y2="89.69" xlink:href="#Gradiente_sem_nome_5"></linearGradient><linearGradient id="Gradiente_sem_nome_5-11" data-name="Gradiente sem nome 5" x1="-54.06" y1="975.53" x2="665.24" y2="225.31" xlink:href="#Gradiente_sem_nome_5"></linearGradient><linearGradient id="Gradiente_sem_nome_5-12" data-name="Gradiente sem nome 5" x1="-246.89" y1="790.64" x2="472.41" y2="40.42" xlink:href="#Gradiente_sem_nome_5"></linearGradient><linearGradient id="Gradiente_sem_nome_5-13" data-name="Gradiente sem nome 5" x1="31.64" y1="1057.69" x2="750.94" y2="307.48" xlink:href="#Gradiente_sem_nome_5"></linearGradient><linearGradient id="Gradiente_sem_nome_5-14" data-name="Gradiente sem nome 5" x1="68.36" y1="1092.9" x2="787.66" y2="342.68" xlink:href="#Gradiente_sem_nome_5"></linearGradient><linearGradient id="Gradiente_sem_nome_5-15" data-name="Gradiente sem nome 5" x1="78.6" y1="1102.73" x2="797.91" y2="352.51" xlink:href="#Gradiente_sem_nome_5"></linearGradient></defs><g id="ART_01"><g id="LOGO_GROUP"><g id="LOGO_F"><g><path class="cls-17" d="m243.88,911.9l-132.87-138.58.39-1.53,53.1-182.91,186.37-45.88,1.15,1.15,131.72,137.43-.39,1.53-53.1,182.91-1.53.39-184.84,45.49Zm-126.35-140.31l128.27,133.98,180.04-44.34,51.76-178.12-128.46-133.98-180.04,44.34-51.58,178.12Z"></path><path class="cls-13" d="m546.63,689.06c0,1.88-.09,3.75-.28,5.62-.18,1.87-.45,3.73-.82,5.57-.36,1.84-.82,3.66-1.37,5.46-.55,1.79-1.17,3.57-1.89,5.3-.71,1.74-1.52,3.44-2.4,5.09-.89,1.66-1.85,3.27-2.89,4.83-1.04,1.56-2.16,3.07-3.35,4.52-1.19,1.45-2.46,2.85-3.78,4.18-1.33,1.32-2.72,2.59-4.17,3.78s-2.96,2.31-4.52,3.36c-1.56,1.04-3.17,2.01-4.83,2.89-1.65.89-3.36,1.69-5.08,2.4-1.74.72-3.5,1.36-5.3,1.9-1.8.55-3.61,1-5.46,1.37-1.84.36-3.7.64-5.56.82-1.87.18-3.73.28-5.62.28s-3.74-.09-5.61-.28c-1.88-.18-3.73-.46-5.57-.82-1.84-.37-3.66-.82-5.45-1.37-1.79-.55-3.56-1.18-5.3-1.9-1.74-.71-3.43-1.52-5.08-2.4-1.65-.89-3.26-1.85-4.83-2.89-1.56-1.04-3.07-2.16-4.52-3.36s-2.84-2.46-4.17-3.78c-1.33-1.33-2.59-2.73-3.78-4.18-1.19-1.45-2.3-2.96-3.35-4.52-1.04-1.56-2.01-3.17-2.89-4.83-.89-1.65-1.69-3.36-2.4-5.09-.72-1.73-1.35-3.5-1.89-5.3-.55-1.8-1.01-3.62-1.37-5.46-.37-1.85-.65-3.71-.83-5.57s-.27-3.74-.27-5.62.08-3.76.27-5.63.46-3.73.83-5.57c.36-1.84.82-3.66,1.37-5.46.55-1.79,1.17-3.57,1.89-5.3.71-1.74,1.52-3.44,2.4-5.09.89-1.66,1.85-3.27,2.89-4.83s2.15-3.07,3.35-4.52,2.45-2.85,3.78-4.18c1.33-1.32,2.72-2.59,4.17-3.78,1.45-1.19,2.96-2.31,4.52-3.36s3.17-2.01,4.83-2.89,3.35-1.69,5.08-2.4c1.74-.72,3.5-1.36,5.3-1.9s3.61-1,5.45-1.37c1.85-.36,3.7-.64,5.57-.82,1.87-.18,3.73-.28,5.61-.28s3.75.09,5.62.28,3.73.46,5.56.82c1.85.37,3.66.82,5.46,1.37,1.79.55,3.56,1.18,5.3,1.9,1.73.71,3.43,1.52,5.08,2.4s3.26,1.85,4.83,2.89,3.07,2.16,4.52,3.36c1.45,1.19,2.84,2.46,4.17,3.78,1.32,1.33,2.59,2.73,3.78,4.18,1.18,1.45,2.3,2.96,3.35,4.52s2.01,3.17,2.89,4.83c.89,1.65,1.69,3.36,2.4,5.09.72,1.73,1.35,3.5,1.89,5.3.55,1.8,1.01,3.62,1.37,5.46.37,1.85.65,3.71.82,5.57.18,1.87.28,3.74.28,5.63Z"></path><path class="cls-6" d="m477.8,392.52c0,1.88-.09,3.75-.28,5.62-.18,1.88-.46,3.73-.82,5.57-.37,1.84-.82,3.66-1.37,5.46-.55,1.79-1.17,3.57-1.89,5.31-.72,1.73-1.53,3.43-2.4,5.08-.89,1.66-1.85,3.27-2.89,4.83s-2.16,3.07-3.36,4.52-2.45,2.85-3.78,4.18c-1.32,1.33-2.72,2.59-4.17,3.78s-2.96,2.31-4.51,3.36c-1.56,1.04-3.17,2.01-4.83,2.89-1.66.89-3.36,1.69-5.09,2.41-1.73.71-3.49,1.35-5.3,1.89-1.79.55-3.61,1-5.45,1.37s-3.7.64-5.56.82-3.74.28-5.62.28-3.75-.09-5.62-.28-3.73-.45-5.56-.82-3.66-.82-5.45-1.37c-1.8-.55-3.57-1.18-5.3-1.89-1.74-.72-3.43-1.53-5.09-2.41-1.65-.89-3.26-1.85-4.83-2.89-1.55-1.04-3.06-2.16-4.51-3.36s-2.85-2.45-4.17-3.78c-1.33-1.33-2.59-2.73-3.78-4.18s-2.31-2.96-3.36-4.52-2.01-3.17-2.89-4.83c-.88-1.65-1.68-3.36-2.4-5.08-.72-1.74-1.35-3.51-1.89-5.31-.55-1.8-1-3.62-1.37-5.46-.36-1.85-.64-3.7-.82-5.57-.18-1.87-.28-3.74-.28-5.62s.09-3.76.28-5.63.46-3.73.82-5.57c.37-1.84.82-3.66,1.37-5.46.55-1.79,1.17-3.56,1.89-5.3s1.53-3.44,2.4-5.09c.89-1.65,1.85-3.27,2.89-4.83s2.16-3.07,3.36-4.52,2.45-2.85,3.78-4.17c1.32-1.33,2.72-2.6,4.17-3.79s2.96-2.31,4.51-3.36c1.56-1.04,3.17-2.01,4.83-2.89,1.66-.89,3.36-1.68,5.09-2.4,1.73-.72,3.49-1.35,5.3-1.9,1.79-.55,3.61-1,5.45-1.37,1.84-.36,3.7-.64,5.56-.82s3.74-.28,5.62-.28,3.75.09,5.62.28,3.73.46,5.56.82c1.84.37,3.66.82,5.45,1.37,1.8.55,3.57,1.18,5.3,1.9,1.74.72,3.43,1.52,5.09,2.4,1.65.89,3.26,1.86,4.83,2.89,1.55,1.04,3.06,2.16,4.51,3.36s2.85,2.46,4.17,3.79c1.33,1.32,2.59,2.72,3.78,4.17s2.31,2.96,3.36,4.52,2.01,3.18,2.89,4.83c.88,1.65,1.68,3.36,2.4,5.09s1.35,3.5,1.89,5.3c.55,1.8,1,3.62,1.37,5.46.36,1.85.64,3.71.82,5.57s.28,3.74.28,5.63Z"></path><path class="cls-4" d="m215.32,1042.61c0,1.89-.09,3.76-.28,5.63s-.46,3.73-.82,5.57c-.37,1.84-.82,3.66-1.37,5.46-.55,1.79-1.18,3.56-1.89,5.3-.72,1.74-1.53,3.44-2.4,5.09-.89,1.65-1.86,3.27-2.89,4.83-1.04,1.56-2.16,3.07-3.36,4.52-1.19,1.45-2.45,2.85-3.78,4.17-1.32,1.33-2.72,2.6-4.17,3.79-1.45,1.19-2.96,2.31-4.51,3.36-1.56,1.04-3.17,2.01-4.83,2.89-1.65.89-3.35,1.68-5.08,2.4-1.73.72-3.49,1.35-5.3,1.9-1.79.55-3.61,1-5.45,1.37-1.84.36-3.7.64-5.56.82-1.87.18-3.74.28-5.62.28s-3.75-.09-5.62-.28c-1.87-.18-3.73-.46-5.56-.82-1.84-.37-3.66-.82-5.45-1.37-1.8-.55-3.57-1.18-5.3-1.9-1.74-.72-3.43-1.52-5.09-2.4-1.65-.89-3.26-1.86-4.83-2.89-1.56-1.04-3.07-2.16-4.52-3.36-1.45-1.19-2.84-2.46-4.16-3.79-1.33-1.32-2.59-2.72-3.78-4.17-1.19-1.45-2.31-2.96-3.36-4.52-1.04-1.56-2.01-3.18-2.89-4.83-.88-1.65-1.68-3.36-2.4-5.09s-1.35-3.5-1.89-5.3c-.55-1.8-1-3.62-1.37-5.46-.36-1.85-.64-3.71-.82-5.57-.18-1.87-.28-3.74-.28-5.63s.09-3.75.28-5.62c.18-1.88.46-3.73.82-5.57.37-1.84.82-3.66,1.37-5.46s1.17-3.57,1.89-5.31c.72-1.73,1.53-3.43,2.4-5.08.89-1.66,1.85-3.27,2.89-4.83s2.16-3.07,3.36-4.52,2.45-2.85,3.78-4.18c1.32-1.33,2.71-2.59,4.16-3.78,1.45-1.19,2.96-2.31,4.52-3.36,1.56-1.04,3.17-2.01,4.83-2.89,1.65-.89,3.36-1.69,5.09-2.41,1.73-.71,3.49-1.35,5.3-1.89,1.79-.55,3.61-1,5.45-1.37,1.84-.37,3.7-.64,5.56-.82,1.87-.18,3.74-.28,5.62-.28s3.75.09,5.62.28c1.87.18,3.73.45,5.56.82,1.84.37,3.66.82,5.45,1.37,1.8.55,3.57,1.18,5.3,1.89,1.74.72,3.43,1.53,5.08,2.41,1.66.89,3.27,1.85,4.83,2.89,1.55,1.04,3.06,2.16,4.51,3.36,1.45,1.19,2.85,2.45,4.17,3.78,1.33,1.33,2.59,2.73,3.78,4.18s2.31,2.96,3.36,4.52c1.04,1.56,2.01,3.17,2.89,4.83.88,1.65,1.68,3.36,2.4,5.08.71,1.74,1.35,3.51,1.89,5.31.55,1.8,1,3.62,1.37,5.46.36,1.85.64,3.7.82,5.57.18,1.87.28,3.74.28,5.62Z"></path><path class="cls-1" d="m215.32,589.25c0,1.88-.09,3.75-.28,5.63-.18,1.87-.46,3.73-.82,5.56-.37,1.85-.82,3.67-1.37,5.46-.55,1.8-1.18,3.57-1.89,5.31-.72,1.74-1.53,3.43-2.4,5.09-.89,1.65-1.86,3.26-2.89,4.83-1.04,1.56-2.16,3.08-3.36,4.53-1.19,1.45-2.45,2.84-3.78,4.17-1.32,1.33-2.72,2.59-4.17,3.78-1.45,1.19-2.96,2.31-4.51,3.36-1.56,1.04-3.17,2.02-4.83,2.9-1.65.88-3.35,1.68-5.08,2.4-1.73.72-3.49,1.35-5.3,1.89-1.79.55-3.61,1.01-5.45,1.37-1.84.37-3.7.65-5.56.83s-3.74.28-5.62.28-3.75-.09-5.62-.28-3.73-.46-5.56-.83c-1.84-.36-3.66-.82-5.45-1.37-1.8-.55-3.57-1.17-5.3-1.89-1.74-.72-3.43-1.53-5.09-2.41-1.65-.88-3.26-1.85-4.83-2.89s-3.07-2.16-4.52-3.36c-1.45-1.19-2.84-2.45-4.16-3.78-1.33-1.33-2.59-2.72-3.78-4.17-1.19-1.45-2.31-2.97-3.36-4.53s-2.01-3.17-2.89-4.83c-.88-1.66-1.68-3.36-2.4-5.09s-1.35-3.5-1.89-5.31c-.55-1.79-1-3.61-1.37-5.46-.36-1.84-.64-3.7-.82-5.56-.18-1.88-.28-3.75-.28-5.63s.09-3.75.28-5.62c.18-1.88.46-3.73.82-5.57.37-1.85.82-3.67,1.37-5.46.55-1.8,1.17-3.57,1.89-5.31s1.53-3.43,2.4-5.09c.89-1.65,1.85-3.26,2.89-4.83s2.16-3.07,3.36-4.53c1.19-1.45,2.45-2.84,3.78-4.17,1.32-1.33,2.71-2.59,4.16-3.78s2.96-2.31,4.52-3.36,3.17-2.02,4.83-2.89c1.65-.89,3.36-1.69,5.09-2.41,1.73-.72,3.49-1.35,5.3-1.89,1.79-.55,3.61-1,5.45-1.37s3.7-.65,5.56-.83c1.87-.18,3.74-.27,5.62-.27s3.75.09,5.62.27c1.87.18,3.73.46,5.56.83s3.66.82,5.45,1.37c1.8.55,3.57,1.17,5.3,1.89,1.74.72,3.43,1.53,5.08,2.41,1.66.88,3.27,1.85,4.83,2.89,1.55,1.04,3.06,2.16,4.51,3.36s2.85,2.45,4.17,3.78c1.33,1.33,2.59,2.72,3.78,4.17,1.19,1.46,2.31,2.97,3.36,4.53,1.04,1.56,2.01,3.17,2.89,4.83.88,1.66,1.68,3.36,2.4,5.09.71,1.74,1.35,3.5,1.89,5.31.55,1.79,1,3.61,1.37,5.46.36,1.84.64,3.7.82,5.57.18,1.87.28,3.74.28,5.62Z"></path><path class="cls-5" d="m496.4,873.32c0,1.89-.09,3.75-.28,5.63-.18,1.87-.46,3.73-.82,5.56-.37,1.85-.82,3.67-1.37,5.46-.55,1.8-1.17,3.57-1.89,5.31-.72,1.74-1.53,3.44-2.4,5.09-.89,1.65-1.85,3.26-2.89,4.83-1.04,1.57-2.16,3.08-3.36,4.53-1.19,1.45-2.45,2.85-3.78,4.17-1.32,1.33-2.72,2.59-4.17,3.78-1.45,1.19-2.96,2.31-4.51,3.36-1.56,1.04-3.17,2.02-4.83,2.9-1.66.89-3.36,1.68-5.09,2.4-1.73.72-3.49,1.35-5.3,1.89-1.79.55-3.61,1.01-5.45,1.37-1.84.37-3.7.65-5.56.83-1.87.18-3.74.28-5.62.28s-3.75-.09-5.62-.28c-1.87-.18-3.73-.46-5.56-.83-1.84-.36-3.66-.82-5.45-1.37-1.8-.55-3.57-1.17-5.3-1.89-1.74-.72-3.43-1.52-5.09-2.4-1.65-.89-3.26-1.86-4.83-2.9-1.56-1.04-3.06-2.16-4.51-3.36-1.45-1.19-2.85-2.45-4.17-3.78-1.33-1.32-2.59-2.72-3.78-4.17-1.19-1.45-2.31-2.96-3.36-4.53-1.04-1.56-2.01-3.17-2.89-4.83-.88-1.65-1.68-3.36-2.4-5.09-.72-1.74-1.35-3.5-1.89-5.31-.55-1.79-1-3.61-1.37-5.46-.36-1.84-.64-3.7-.82-5.56-.18-1.88-.28-3.74-.28-5.63s.09-3.75.28-5.62c.18-1.88.46-3.73.82-5.57.37-1.84.82-3.66,1.37-5.46s1.17-3.57,1.89-5.31,1.53-3.43,2.4-5.08c.89-1.66,1.85-3.27,2.89-4.83s2.16-3.07,3.36-4.52c1.19-1.46,2.45-2.85,3.78-4.18,1.32-1.33,2.72-2.59,4.17-3.78,1.45-1.19,2.95-2.31,4.51-3.36,1.56-1.04,3.17-2.01,4.83-2.89,1.66-.89,3.36-1.69,5.09-2.41,1.73-.72,3.49-1.35,5.3-1.89,1.79-.55,3.61-1,5.45-1.37,1.84-.37,3.7-.64,5.56-.82,1.87-.18,3.74-.28,5.62-.28s3.75.09,5.62.28c1.87.18,3.73.45,5.56.82,1.84.37,3.66.82,5.45,1.37,1.8.55,3.57,1.17,5.3,1.89,1.74.72,3.43,1.53,5.09,2.41,1.65.89,3.26,1.85,4.83,2.89,1.55,1.04,3.06,2.16,4.51,3.36,1.45,1.19,2.85,2.45,4.17,3.78,1.33,1.33,2.59,2.72,3.78,4.18,1.19,1.45,2.31,2.96,3.36,4.52s2.01,3.17,2.89,4.83c.88,1.65,1.68,3.35,2.4,5.08s1.35,3.5,1.89,5.31,1,3.62,1.37,5.46c.36,1.84.64,3.7.82,5.57.18,1.87.28,3.74.28,5.62Z"></path><path class="cls-9" d="m273.6,908.83c0,1.89-.18,3.76-.55,5.61-.37,1.86-.92,3.66-1.64,5.41-.73,1.74-1.61,3.4-2.66,4.97-1.04,1.57-2.24,3.02-3.58,4.36-1.33,1.34-2.78,2.53-4.35,3.58-1.57,1.05-3.23,1.94-4.97,2.66-1.75.72-3.55,1.28-5.4,1.64-1.85.37-3.73.55-5.61.55s-3.75-.18-5.61-.55c-1.85-.36-3.65-.92-5.4-1.64-1.74-.72-3.4-1.61-4.96-2.66-1.57-1.04-3.02-2.24-4.36-3.58-1.33-1.34-2.52-2.79-3.58-4.36-1.04-1.57-1.93-3.24-2.65-4.97-.73-1.75-1.28-3.55-1.64-5.41-.37-1.85-.55-3.73-.55-5.61s.18-3.76.55-5.62c.36-1.86.91-3.65,1.64-5.4.72-1.75,1.61-3.41,2.65-4.98,1.05-1.57,2.25-3.02,3.58-4.36,1.34-1.33,2.79-2.53,4.36-3.58,1.56-1.05,3.23-1.94,4.96-2.66,1.75-.72,3.55-1.27,5.4-1.64,1.86-.37,3.73-.55,5.61-.55s3.76.18,5.61.55c1.85.37,3.65.92,5.4,1.64s3.4,1.61,4.97,2.66c1.57,1.04,3.02,2.25,4.35,3.58,1.34,1.34,2.53,2.79,3.58,4.36,1.05,1.57,1.93,3.24,2.66,4.98.72,1.75,1.27,3.54,1.64,5.4s.55,3.73.55,5.62Z"></path><path class="cls-11" d="m140.16,779.65c0,1.59-.16,3.16-.46,4.72-.31,1.55-.77,3.07-1.38,4.53-.61,1.47-1.35,2.87-2.24,4.19-.88,1.32-1.88,2.54-3,3.66-1.12,1.13-2.34,2.13-3.66,3.01-1.31.88-2.71,1.63-4.17,2.23-1.47.61-2.98,1.07-4.54,1.38-1.55.31-3.12.47-4.71.47s-3.15-.16-4.71-.47c-1.56-.31-3.07-.77-4.54-1.38-1.46-.6-2.86-1.35-4.18-2.23-1.31-.89-2.53-1.89-3.66-3.01-1.12-1.12-2.12-2.34-3-3.66-.88-1.32-1.63-2.72-2.23-4.19-.61-1.46-1.06-2.98-1.38-4.53-.31-1.56-.46-3.13-.46-4.72s.16-3.16.46-4.71c.31-1.56.77-3.07,1.38-4.54.6-1.47,1.35-2.86,2.23-4.18.89-1.32,1.89-2.54,3-3.67,1.13-1.12,2.35-2.13,3.66-3,1.32-.89,2.72-1.63,4.18-2.24,1.47-.61,2.98-1.06,4.54-1.38,1.55-.31,3.12-.46,4.71-.46s3.16.16,4.71.46c1.56.31,3.07.77,4.54,1.38,1.46.61,2.86,1.35,4.17,2.24,1.32.88,2.54,1.89,3.66,3,1.13,1.13,2.13,2.35,3,3.67.89,1.32,1.63,2.71,2.24,4.18s1.06,2.98,1.38,4.54c.31,1.55.46,3.12.46,4.71Z"></path><path class="cls-8" d="m353.44,546.72l47.94-112.45,5.3,2.26-47.95,112.46-5.29-2.26Z"></path><path class="cls-12" d="m35.69,512.24l3.28-4.73,100.31,69.75-3.28,4.73-100.31-69.75Z"></path><path class="cls-10" d="m386.35,547.79c0,1.99-.19,3.97-.58,5.92s-.96,3.85-1.73,5.68c-.76,1.84-1.69,3.6-2.79,5.25-1.11,1.65-2.37,3.18-3.77,4.59-1.41,1.41-2.94,2.66-4.59,3.77s-3.39,2.04-5.23,2.8-3.73,1.34-5.68,1.73-3.92.58-5.91.58-3.97-.19-5.92-.58-3.85-.97-5.68-1.73c-1.83-.76-3.58-1.69-5.23-2.8s-3.19-2.37-4.59-3.77c-1.41-1.41-2.66-2.94-3.76-4.59-1.11-1.65-2.04-3.41-2.8-5.25-.77-1.84-1.34-3.73-1.73-5.68s-.58-3.93-.58-5.92.19-3.97.58-5.92.96-3.85,1.73-5.69c.76-1.84,1.69-3.59,2.8-5.24,1.1-1.65,2.36-3.19,3.76-4.59s2.94-2.66,4.59-3.77,3.4-2.04,5.23-2.8c1.84-.76,3.73-1.34,5.68-1.73s3.92-.58,5.92-.58,3.96.19,5.91.58,3.85.97,5.68,1.73,3.58,1.69,5.23,2.8,3.19,2.37,4.59,3.77,2.66,2.94,3.77,4.59c1.1,1.65,2.03,3.4,2.79,5.24.77,1.85,1.34,3.74,1.73,5.69s.58,3.93.58,5.92Z"></path><path class="cls-3" d="m60.59,501.54c0,1.99-.19,3.97-.58,5.92s-.96,3.85-1.73,5.68c-.76,1.84-1.69,3.59-2.79,5.24-1.11,1.66-2.37,3.19-3.77,4.6-1.41,1.41-2.94,2.66-4.59,3.77-1.65,1.1-3.39,2.03-5.23,2.8-1.84.76-3.73,1.33-5.68,1.73-1.95.39-3.92.58-5.91.58s-3.97-.19-5.92-.58c-1.95-.4-3.85-.97-5.68-1.73-1.83-.77-3.58-1.7-5.23-2.8-1.65-1.11-3.19-2.37-4.59-3.77-1.41-1.41-2.66-2.94-3.76-4.6-1.11-1.65-2.04-3.4-2.8-5.24-.77-1.84-1.34-3.73-1.73-5.68s-.58-3.93-.58-5.92.19-3.97.58-5.92c.39-1.96.96-3.85,1.73-5.69.76-1.84,1.69-3.59,2.8-5.24,1.1-1.65,2.36-3.19,3.76-4.59s2.94-2.66,4.59-3.77,3.4-2.04,5.23-2.8c1.84-.77,3.73-1.34,5.68-1.73s3.92-.58,5.92-.58,3.96.19,5.91.58,3.85.96,5.68,1.73c1.84.76,3.58,1.69,5.23,2.8s3.19,2.37,4.59,3.77,2.66,2.94,3.77,4.59c1.1,1.65,2.03,3.4,2.79,5.24.77,1.84,1.34,3.73,1.73,5.69.39,1.95.58,3.92.58,5.92Z"></path></g><g><path class="cls-2" d="m570.63,508.55c34.82.84,72.55-10.82,98.92-27.92,47.26-30.65,77.52-71.61,87.36-126.99,4.44-25.01-1.02-30.67-26.34-30.69-78.41-.07-156.82-.02-271.9-.02-52.73,3.36-142.43-8.24-231.68,4.13-30.59,4.24-56.81,17.86-80.07,37.37-38.47,32.29-59.9,73.92-67.32,123.47-2.04,13.59-.05,19.62,15.27,19.28,35.22-.78,70.5.74,105.68-.69,17.84-.73,22.43,4.83,22.31,22.35-.75,111.68-.34,223.37-.36,335.06,0,18.6-.28,37.19-.28,55.79,0,6.87.26,10.98,10.64,11.03,51.82.28,92.76-26.77,126.56-59.18,32.82-31.48,46.72-77,47.52-123.47,1.28-73.77.89-147.58.22-221.37-.15-15.92,4.93-20.42,20.49-20.13l142.98,1.99Z"></path><path class="cls-2" d="m641.29.31c78.43,0,156.86-.03,235.29.02,25.24.01,24.59,1.4,21.74,25.98-9.53,82.46-61.07,128.25-133.88,155.01-14.39,5.29-31.32,4.88-47.09,4.95-97.25.45-194.5.64-291.74-.13-9.45-.08-17.23,7.46-17.43,16.91-.94,44.12,3.7,46.67-36.7,46.67-33.61,0-80.74-1.63-127.41-1.63-18.11.57-22.78-5.65-21.99-22.83,1.59-34.76-1.31-69.39,10.96-103.55,15.56-43.33,44.67-73.95,82.65-96.79C351.85,3.19,392.34-.55,433.92.06c69.11,1.01,138.25.27,207.37.26Z"></path></g><g><path class="cls-15" d="m448.06,784.78l-22.22,76.46-180.03,44.33-128.28-133.98,8.59-29.67-5.82-.78-8.89,30.65-.39,1.53,132.88,138.59,184.83-45.49,1.54-.39,23.37-80.5-5.57-.75Z"></path><path class="cls-14" d="m273.6,908.83c0,1.89-.18,3.76-.55,5.61-.37,1.86-.92,3.66-1.64,5.41-.73,1.74-1.61,3.4-2.66,4.97-1.04,1.57-2.24,3.02-3.58,4.36-1.33,1.34-2.78,2.53-4.35,3.58-1.57,1.05-3.23,1.94-4.97,2.66-1.75.72-3.55,1.28-5.4,1.64-1.85.37-3.73.55-5.61.55s-3.75-.18-5.61-.55c-1.85-.36-3.65-.92-5.4-1.64-1.74-.72-3.4-1.61-4.96-2.66-1.57-1.04-3.02-2.24-4.36-3.58-1.33-1.34-2.52-2.79-3.58-4.36-1.04-1.57-1.93-3.24-2.65-4.97-.73-1.75-1.28-3.55-1.64-5.41-.37-1.85-.55-3.73-.55-5.61s.18-3.76.55-5.62c.36-1.86.91-3.65,1.64-5.4.72-1.75,1.61-3.41,2.65-4.98,1.05-1.57,2.25-3.02,3.58-4.36,1.34-1.33,2.79-2.53,4.36-3.58,1.56-1.05,3.23-1.94,4.96-2.66,1.75-.72,3.55-1.27,5.4-1.64,1.86-.37,3.73-.55,5.61-.55s3.76.18,5.61.55c1.85.37,3.65.92,5.4,1.64s3.4,1.61,4.97,2.66c1.57,1.04,3.02,2.25,4.35,3.58,1.34,1.34,2.53,2.79,3.58,4.36,1.05,1.57,1.93,3.24,2.66,4.98.72,1.75,1.27,3.54,1.64,5.4s.55,3.73.55,5.62Z"></path><path class="cls-16" d="m173.71,1016.06l66.48-102.56,4.83,3.13-66.48,102.57-4.83-3.14Z"></path></g></g><g id="TITLE_VECTOR"><g><path class="cls-7" d="m664.36,622.33h130.53v33.18h-87.12v58.76h81.12v31.13h-81.12v92.67h-43.41v-215.75Z"></path><path class="cls-7" d="m825.19,908.97l-2.92-32.89c9.84-1.46,18.34-5.14,25.51-11.04,7.16-5.9,12.98-14.74,17.47-26.53l2.48-6.43-59.2-150.99h39.61l39.03,106.41,33.03-106.41h39.61l-54.23,155.23c-8.48,24.26-19.27,41.88-32.38,52.84-13.11,10.96-29.11,17.56-48.02,19.81Z"></path><path class="cls-7" d="m1056.03,841.44c-8.58,0-16.3-1.32-23.17-3.95s-12.84-5.6-17.91-8.92l-3.95,9.5h-27.33v-221.59h39.76v69.58c4.77-2.53,9.89-4.55,15.35-6.07,5.46-1.51,11.5-2.27,18.12-2.27,15.2,0,27.31,2.34,36.32,7.02,9.01,4.68,15.47,10.84,19.37,18.49,3.9,7.65,5.85,15.91,5.85,24.78v61.98c0,15.3-5.63,27.7-16.88,37.2-11.26,9.5-26.43,14.25-45.53,14.25Zm-6.58-27.92c8.57,0,15.59-1.8,21.05-5.41,5.46-3.6,8.19-9.35,8.19-17.25v-63.58c0-7.79-2.34-13.37-7.02-16.74-4.68-3.36-11.45-5.04-20.32-5.04-7.11,0-13.16,1-18.13,3-4.97,2-8.24,3.43-9.79,4.31v93.7c6.14,4.68,14.81,7.02,26.02,7.02Z"></path><path class="cls-7" d="m1150.21,788.96v-61.25c0-15.98,6.07-28.31,18.2-36.98,12.13-8.67,28.38-13.01,48.75-13.01,24.17,0,41.34,4.63,51.52,13.89,10.18,9.26,15.27,21.78,15.27,37.57v38h-93.99v25.58c0,9.26,2.39,15.08,7.16,17.47,4.77,2.39,11.89,3.58,21.34,3.58,11.3,0,18.88-1.58,22.73-4.75,3.85-3.17,5.77-9.57,5.77-19.22h36.83c0,19.39-5.46,32.84-16.37,40.34-10.92,7.51-27.48,11.26-49.7,11.26-12.77,0-24.26-1.59-34.5-4.75s-18.3-8.55-24.19-16.15c-5.9-7.6-8.84-18.12-8.84-31.57Zm96.18-46.04v-18.42c0-5.85-1.24-10.11-3.73-12.79-2.48-2.68-5.85-4.38-10.09-5.12s-9.04-1.1-14.4-1.1c-7.99,0-14.69,1.2-20.1,3.58-5.41,2.39-8.11,7.77-8.11,16.15v17.69h56.42Z"></path><path class="cls-7" d="m1318.93,681.09h39.76v18.71c2.34-4.09,6.45-7.72,12.35-10.89,5.89-3.17,12.64-5.65,20.24-7.46,7.6-1.8,15.2-2.7,22.8-2.7l-.88,33.76c-5.07.29-10.57.93-16.52,1.9-5.95.98-11.67,2.29-17.18,3.95-5.51,1.66-10.16,3.71-13.96,6.14-3.8,2.44-6.09,5.21-6.87,8.33v105.24h-39.76v-156.99Z"></path><path class="cls-2" d="m1511.23,622.33h84.63c23.68,0,41.32,5.38,52.91,16.15,11.59,10.77,17.39,28.33,17.39,52.69,0,16.66-2.29,30.33-6.87,41-4.58,10.67-12.3,18.59-23.17,23.75-10.87,5.17-25.7,7.75-44.51,7.75h-36.98v74.4h-43.41v-215.75Zm87.26,109.63c11.01,0,18.27-3.19,21.78-9.57,3.51-6.38,5.26-16.05,5.26-29.01,0-11.3-1.71-20.83-5.12-28.58-3.41-7.75-10.23-11.62-20.46-11.62h-45.31v78.79h43.85Z"></path><path class="cls-2" d="m1760.49,841.44c-24.75,0-42.29-4.58-52.62-13.74-10.33-9.16-15.49-21.54-15.49-37.13v-61.83c0-15.98,5.97-28.48,17.91-37.49,11.94-9.01,28.67-13.52,50.21-13.52s38.15,4.51,50.14,13.52c11.99,9.01,17.98,21.51,17.98,37.49v61.83c0,10.33-2.14,19.32-6.43,26.97-4.29,7.65-11.38,13.55-21.27,17.69-9.89,4.14-23.37,6.21-40.42,6.21Zm0-27.63c8.48,0,15.32-1.58,20.54-4.75,5.21-3.17,7.82-8.75,7.82-16.74v-65.34c0-7.99-2.48-13.57-7.46-16.74-4.97-3.17-11.94-4.75-20.9-4.75s-15.45,1.59-20.61,4.75c-5.17,3.17-7.75,8.75-7.75,16.74v65.34c0,7.99,2.43,13.57,7.31,16.74,4.87,3.17,11.89,4.75,21.05,4.75Z"></path><path class="cls-2" d="m1866.21,786.48v-169.85h39.76v169.27c0,8.58,2.02,14.79,6.07,18.64,4.04,3.85,11.38,5.77,22,5.77h4.97l-3.07,29.53h-16.66c-17.45,0-30.65-3.97-39.61-11.91-8.97-7.94-13.45-21.75-13.45-41.44Z"></path><path class="cls-2" d="m1959.36,681.09h39.61v156.99h-39.61v-156.99Zm18.56-79.81h39.17l-35.23,53.35h-21.78l17.83-53.35Z"></path><path class="cls-2" d="m2036,681.09h39.76v14.03c1.56-1.66,4.31-3.85,8.26-6.58,3.95-2.73,9.11-5.21,15.49-7.46,6.38-2.24,13.91-3.36,22.58-3.36,10.13,0,18.86,1.56,26.17,4.68,7.31,3.12,12.96,8.04,16.96,14.76,5.75-5.75,12.79-10.43,21.12-14.03,8.33-3.6,18.68-5.41,31.06-5.41,15.1,0,27.19,4.07,36.25,12.21,9.06,8.14,13.59,18.83,13.59,32.08v116.06h-39.76v-111.38c0-8.28-2.19-13.64-6.58-16.08-4.38-2.43-9.65-3.65-15.79-3.65-4.68,0-9.53.8-14.54,2.41-5.02,1.61-9.31,4.02-12.86,7.24-3.56,3.22-5.53,7.16-5.92,11.84v109.63h-39.76v-111.38c0-8.28-2.34-13.64-7.02-16.08-4.68-2.43-10.14-3.65-16.37-3.65-4.78,0-9.7.85-14.76,2.56-5.07,1.71-9.35,4.26-12.86,7.67-3.51,3.41-5.26,7.7-5.26,12.86v108.02h-39.76v-156.99Z"></path><path class="cls-2" d="m2303.09,788.96v-61.25c0-15.98,6.07-28.31,18.2-36.98,12.13-8.67,28.38-13.01,48.75-13.01,24.17,0,41.34,4.63,51.53,13.89,10.18,9.26,15.27,21.78,15.27,37.57v38h-93.99v25.58c0,9.26,2.39,15.08,7.16,17.47,4.77,2.39,11.89,3.58,21.34,3.58,11.3,0,18.88-1.58,22.73-4.75,3.85-3.17,5.77-9.57,5.77-19.22h36.83c0,19.39-5.46,32.84-16.37,40.34-10.91,7.51-27.48,11.26-49.7,11.26-12.77,0-24.26-1.59-34.5-4.75-10.23-3.17-18.3-8.55-24.19-16.15-5.9-7.6-8.84-18.12-8.84-31.57Zm96.18-46.04v-18.42c0-5.85-1.24-10.11-3.73-12.79-2.49-2.68-5.85-4.38-10.09-5.12s-9.04-1.1-14.4-1.1c-7.99,0-14.69,1.2-20.1,3.58-5.41,2.39-8.11,7.77-8.11,16.15v17.69h56.42Z"></path><path class="cls-2" d="m2471.81,681.09h39.76v18.71c2.34-4.09,6.45-7.72,12.35-10.89,5.89-3.17,12.64-5.65,20.24-7.46,7.6-1.8,15.2-2.7,22.8-2.7l-.88,33.76c-5.07.29-10.57.93-16.52,1.9-5.95.98-11.67,2.29-17.18,3.95-5.51,1.66-10.16,3.71-13.96,6.14-3.8,2.44-6.09,5.21-6.87,8.33v105.24h-39.76v-156.99Z"></path><path class="cls-2" d="m2651.64,841.44c-24.75,0-42.29-4.58-52.62-13.74-10.33-9.16-15.49-21.54-15.49-37.13v-61.83c0-15.98,5.97-28.48,17.91-37.49,11.94-9.01,28.67-13.52,50.21-13.52s38.15,4.51,50.14,13.52c11.99,9.01,17.98,21.51,17.98,37.49v61.83c0,10.33-2.14,19.32-6.43,26.97-4.29,7.65-11.38,13.55-21.27,17.69-9.89,4.14-23.37,6.21-40.42,6.21Zm0-27.63c8.48,0,15.32-1.58,20.54-4.75,5.21-3.17,7.82-8.75,7.82-16.74v-65.34c0-7.99-2.48-13.57-7.46-16.74-4.97-3.17-11.94-4.75-20.9-4.75s-15.45,1.59-20.61,4.75c-5.17,3.17-7.75,8.75-7.75,16.74v65.34c0,7.99,2.43,13.57,7.31,16.74,4.87,3.17,11.89,4.75,21.05,4.75Z"></path><path class="cls-2" d="m2749.18,829.16l8.04-27.04c8.38,3.61,17.17,6.46,26.38,8.55,9.21,2.1,17.66,3.14,25.36,3.14,7.21,0,12.57-1.73,16.08-5.19,3.51-3.46,5.26-8.21,5.26-14.25,0-4.58-1-8.16-3-10.74-2-2.58-5.43-4.65-10.31-6.21l-34.5-10.82c-12.38-3.9-20.88-9.65-25.51-17.25-4.63-7.6-6.94-16.66-6.94-27.19,0-15.01,5.29-26.16,15.86-33.47,10.57-7.31,24.09-10.96,40.56-10.96,13.45,0,24.85,1.41,34.2,4.24,9.36,2.83,16.86,5.85,22.51,9.06l-9.36,24.7c-3.02-1.66-7.02-3.26-11.99-4.82-4.97-1.56-10.26-2.85-15.86-3.87-5.6-1.02-10.89-1.54-15.86-1.54-8.38,0-14.13,1.46-17.25,4.39-3.12,2.92-4.68,6.97-4.68,12.13,0,3.31.78,6.21,2.34,8.7,1.56,2.48,4.33,4.36,8.33,5.63l32.45,10.23c13.25,4.19,22.46,10.04,27.63,17.54,5.16,7.5,7.75,17.39,7.75,29.67,0,13.25-4.68,24.51-14.03,33.77-9.36,9.26-23.44,13.89-42.24,13.89-13.25,0-24.73-1-34.42-3-9.7-2-18.64-5.09-26.82-9.28Z"></path></g><g><path class="cls-7" d="m941.11,937.97h35.53c5.73,0,10.99,1.2,15.8,3.59,4.81,2.39,8.67,5.89,11.59,10.51,2.92,4.62,4.38,10.31,4.38,17.1s-1.4,12.33-4.21,16.81c-2.81,4.48-6.17,7.84-10.09,10.09s-7.58,3.43-10.97,3.54l27.52,48.46h-10.68l-26.35-47.79h-23.19v47.79h-9.34v-110.09Zm9.34,54.71h23.02c7.51,0,13.61-1.89,18.31-5.67,4.7-3.78,7.05-9.67,7.05-17.68s-2.34-13.91-7.01-17.56c-4.67-3.64-10.79-5.46-18.35-5.46h-23.02v46.37Z"></path><path class="cls-7" d="m1032.43,1014.95c.05,4.78,1.01,9.26,2.88,13.43,1.86,4.17,4.68,7.53,8.47,10.09,3.78,2.56,8.53,3.84,14.26,3.84,4.67,0,8.58-.76,11.72-2.29,3.14-1.53,5.64-3.31,7.51-5.34,1.86-2.03,3.18-3.85,3.96-5.46l5.92,5.84c-2.06,3.17-4.43,5.88-7.13,8.13-2.7,2.25-5.87,3.96-9.51,5.13-3.64,1.17-7.97,1.75-12.97,1.75-7.28,0-13.5-1.63-18.64-4.88-5.14-3.25-9.06-7.69-11.76-13.3-2.7-5.62-4.04-11.93-4.04-18.93s1.33-12.68,4-18.01c2.67-5.34,6.52-9.56,11.55-12.68,5.03-3.11,11.11-4.67,18.22-4.67,6.45,0,12.05,1.42,16.81,4.25,4.75,2.84,8.45,6.77,11.09,11.8,2.64,5.03,3.96,10.88,3.96,17.56,0,.5-.01,1.14-.04,1.92-.03.78-.07,1.39-.13,1.83h-56.13Zm46.79-7.92c-.06-3-.79-6.18-2.21-9.55-1.42-3.36-3.73-6.23-6.92-8.59-3.2-2.36-7.58-3.54-13.14-3.54s-10.38,1.16-13.8,3.46c-3.42,2.31-5.91,5.13-7.46,8.46-1.56,3.34-2.5,6.59-2.84,9.76h46.37Z"></path><path class="cls-7" d="m1127.68,977.59c3.17,0,6.16.35,8.97,1.04,2.81.7,5.27,1.56,7.38,2.59,2.11,1.03,3.7,1.96,4.75,2.79l-4.59,6.59c-1.17-1.11-3.2-2.29-6.09-3.54-2.89-1.25-6.14-1.88-9.76-1.88-4.45,0-8.24.92-11.38,2.75-3.14,1.83-4.71,4.5-4.71,8.01s1.58,6.09,4.75,8.09c3.17,2,7.34,3.64,12.51,4.92,3.95,1,7.55,2.25,10.8,3.75,3.25,1.5,5.85,3.54,7.8,6.13,1.95,2.59,2.92,6.02,2.92,10.3,0,3.67-.75,6.83-2.25,9.47-1.5,2.64-3.54,4.79-6.13,6.46-2.59,1.67-5.52,2.92-8.8,3.75-3.28.83-6.73,1.25-10.34,1.25s-7.17-.42-10.34-1.25c-3.17-.83-5.88-1.83-8.13-3s-3.96-2.25-5.13-3.25l4.75-7.42c1.45,1.5,3.82,3.04,7.13,4.63,3.31,1.58,7.19,2.38,11.63,2.38,5.17,0,9.44-1.19,12.8-3.59,3.36-2.39,5.05-5.53,5.05-9.42,0-2.83-.81-5.11-2.42-6.84-1.61-1.72-3.73-3.1-6.34-4.13-2.61-1.03-5.39-1.9-8.34-2.63-2.84-.72-5.55-1.6-8.13-2.63-2.59-1.03-4.88-2.32-6.88-3.88-2-1.56-3.57-3.43-4.71-5.63-1.14-2.2-1.71-4.77-1.71-7.71,0-3.67,1.14-6.85,3.42-9.55,2.28-2.7,5.32-4.8,9.13-6.3,3.81-1.5,7.94-2.25,12.39-2.25Z"></path><path class="cls-7" d="m1174.47,951.82c-2,0-3.71-.71-5.13-2.13-1.42-1.42-2.13-3.13-2.13-5.13s.72-3.79,2.17-5.21c1.45-1.42,3.14-2.13,5.09-2.13,1.33,0,2.57.33,3.71,1,1.14.67,2.06,1.54,2.75,2.63.69,1.08,1.04,2.32,1.04,3.71,0,2-.74,3.71-2.21,5.13-1.47,1.42-3.24,2.13-5.3,2.13Zm-4.84,96.25v-68.47h9.42v68.47h-9.42Z"></path><path class="cls-7" d="m1236.1,977.59c4.34,0,8.56.93,12.68,2.79,4.11,1.86,7.51,4.81,10.17,8.84s4,9.24,4,15.64v43.2h-9.67v-40.95c0-7.62-1.78-13.11-5.34-16.47-3.56-3.36-8.12-5.05-13.68-5.05-3.67,0-7.21,1.06-10.63,3.17-3.42,2.11-6.23,5-8.42,8.67-2.2,3.67-3.29,7.79-3.29,12.34v38.28h-9.51v-68.47h9.51v13.18c.39-1.95,1.71-4.1,3.96-6.46s5.14-4.41,8.67-6.13c3.53-1.72,7.38-2.58,11.55-2.58Z"></path><path class="cls-7" d="m1338.18,1048.06v-14.34c-.39,1.5-1.68,3.56-3.88,6.17-2.2,2.61-5.23,4.96-9.09,7.05-3.87,2.08-8.44,3.13-13.72,3.13-6.17,0-11.86-1.43-17.06-4.3-5.2-2.86-9.37-7.01-12.51-12.43-3.14-5.42-4.71-11.91-4.71-19.47s1.57-14.05,4.71-19.47c3.14-5.42,7.31-9.58,12.51-12.47,5.2-2.89,10.88-4.34,17.06-4.34,5.28,0,9.84.99,13.68,2.96s6.88,4.24,9.13,6.8c2.25,2.56,3.52,4.7,3.79,6.42v-14.18h9.34v68.47h-9.26Zm-51.54-34.2c0,5.78,1.25,10.76,3.75,14.93s5.74,7.37,9.72,9.59c3.97,2.22,8.16,3.34,12.55,3.34,4.84,0,9.15-1.14,12.93-3.42,3.78-2.28,6.77-5.5,8.97-9.67,2.2-4.17,3.29-9.09,3.29-14.76s-1.1-10.59-3.29-14.76c-2.2-4.17-5.19-7.41-8.97-9.72-3.78-2.31-8.09-3.46-12.93-3.46-4.39,0-8.58,1.13-12.55,3.38-3.98,2.25-7.21,5.46-9.72,9.63s-3.75,9.15-3.75,14.93Z"></path><path class="cls-7" d="m1390.06,977.59c3.17,0,6.16.35,8.97,1.04,2.81.7,5.27,1.56,7.38,2.59,2.11,1.03,3.7,1.96,4.75,2.79l-4.59,6.59c-1.17-1.11-3.2-2.29-6.09-3.54-2.89-1.25-6.14-1.88-9.76-1.88-4.45,0-8.24.92-11.38,2.75-3.14,1.83-4.71,4.5-4.71,8.01s1.58,6.09,4.75,8.09c3.17,2,7.34,3.64,12.51,4.92,3.95,1,7.55,2.25,10.8,3.75,3.25,1.5,5.85,3.54,7.8,6.13,1.95,2.59,2.92,6.02,2.92,10.3,0,3.67-.75,6.83-2.25,9.47-1.5,2.64-3.54,4.79-6.13,6.46-2.59,1.67-5.52,2.92-8.8,3.75-3.28.83-6.73,1.25-10.34,1.25s-7.17-.42-10.34-1.25c-3.17-.83-5.88-1.83-8.13-3s-3.96-2.25-5.13-3.25l4.75-7.42c1.45,1.5,3.82,3.04,7.13,4.63,3.31,1.58,7.19,2.38,11.63,2.38,5.17,0,9.44-1.19,12.8-3.59,3.36-2.39,5.05-5.53,5.05-9.42,0-2.83-.81-5.11-2.42-6.84-1.61-1.72-3.73-3.1-6.34-4.13-2.61-1.03-5.39-1.9-8.34-2.63-2.84-.72-5.55-1.6-8.13-2.63-2.59-1.03-4.88-2.32-6.88-3.88-2-1.56-3.57-3.43-4.71-5.63-1.14-2.2-1.71-4.77-1.71-7.71,0-3.67,1.14-6.85,3.42-9.55,2.28-2.7,5.32-4.8,9.13-6.3,3.81-1.5,7.94-2.25,12.39-2.25Z"></path><path class="cls-7" d="m1465.28,1021.46c0-4.61.9-8.69,2.71-12.22,1.81-3.53,4.11-6.59,6.92-9.17,2.81-2.58,5.75-4.75,8.84-6.5,3.09-1.75,5.93-3.13,8.55-4.13,2.61-1,4.59-1.72,5.92-2.17-.89-.72-2.14-2-3.75-3.84-1.61-1.83-3.27-4.03-4.96-6.59-1.7-2.56-3.13-5.32-4.29-8.3s-1.75-5.99-1.75-9.05c0-4.45,1.22-8.44,3.67-11.97,2.45-3.53,5.75-6.34,9.92-8.42s8.9-3.13,14.18-3.13,10.16,1.03,14.14,3.09c3.97,2.06,7.03,4.85,9.17,8.38,2.14,3.53,3.21,7.58,3.21,12.14,0,4.95-1.08,9.22-3.25,12.8-2.17,3.59-4.8,6.58-7.88,8.97-3.09,2.39-6.03,4.27-8.84,5.63-2.81,1.36-4.82,2.32-6.05,2.88l27.19,29.86c1.28-1.45,2.99-3.66,5.13-6.63,2.14-2.97,4.18-6.27,6.13-9.88l6.42,5.17c-.56,1.33-1.53,3.1-2.92,5.3-1.39,2.2-2.91,4.37-4.54,6.5-1.64,2.14-3.1,3.85-4.38,5.13l21.43,22.77h-12.26l-15.68-17.01c-2.95,3-6.45,5.96-10.51,8.88-4.06,2.92-8.65,5.34-13.76,7.26-5.12,1.92-10.76,2.88-16.93,2.88s-11.82-1.21-16.6-3.63c-4.78-2.42-8.51-5.78-11.18-10.09-2.67-4.31-4-9.27-4-14.89Zm38.12-28.02c-1.06.28-2.7.82-4.92,1.63-2.22.81-4.67,1.92-7.34,3.34s-5.21,3.2-7.63,5.34c-2.42,2.14-4.43,4.63-6.05,7.46-1.61,2.83-2.42,6.12-2.42,9.84,0,4.45,1.07,8.19,3.21,11.22,2.14,3.03,4.95,5.31,8.42,6.84,3.47,1.53,7.21,2.29,11.22,2.29,4.84,0,9.51-.88,14.01-2.63,4.5-1.75,8.55-3.89,12.13-6.42,3.59-2.53,6.44-4.99,8.55-7.38l-29.19-31.53Zm7.59-49.46c-3.89,0-7.21.78-9.97,2.34s-4.85,3.53-6.3,5.92c-1.45,2.39-2.17,4.84-2.17,7.34s.68,5.31,2.04,8.09c1.36,2.78,2.92,5.38,4.67,7.8,1.75,2.42,3.36,4.42,4.84,6,1.47,1.58,2.29,2.49,2.46,2.71,1.45-.39,3.41-1.14,5.88-2.25,2.47-1.11,4.99-2.65,7.55-4.63,2.56-1.97,4.73-4.42,6.51-7.34,1.78-2.92,2.67-6.38,2.67-10.38,0-4.45-1.7-8.16-5.09-11.13-3.39-2.97-7.76-4.46-13.09-4.46Z"></path><path class="cls-7" d="m1615.82,937.97h54.46v8.76h-45.29v41.78h42.37v8.76h-42.37v50.79h-9.17v-110.09Z"></path><path class="cls-7" d="m1694.47,951.82c-2,0-3.71-.71-5.13-2.13s-2.13-3.13-2.13-5.13.72-3.79,2.17-5.21c1.45-1.42,3.14-2.13,5.09-2.13,1.33,0,2.57.33,3.71,1,1.14.67,2.06,1.54,2.75,2.63.69,1.08,1.04,2.32,1.04,3.71,0,2-.74,3.71-2.21,5.13-1.47,1.42-3.24,2.13-5.3,2.13Zm-4.84,96.25v-68.47h9.42v68.47h-9.42Z"></path><path class="cls-7" d="m1721.65,1048.06v-114.76h9.67v60.47c.28-1.83,1.58-4.02,3.92-6.55,2.33-2.53,5.53-4.77,9.59-6.71,4.06-1.95,8.76-2.92,14.1-2.92,6.23,0,11.83,1.45,16.8,4.34,4.98,2.89,8.94,7.05,11.89,12.47,2.95,5.42,4.42,11.91,4.42,19.47s-1.47,14.05-4.42,19.47c-2.95,5.42-6.91,9.56-11.89,12.43-4.98,2.86-10.58,4.3-16.8,4.3-5.23,0-9.87-1-13.93-3-4.06-2-7.31-4.28-9.76-6.84-2.45-2.56-3.84-4.73-4.17-6.5v14.34h-9.42Zm60.8-34.2c0-5.78-1.15-10.76-3.46-14.93-2.31-4.17-5.34-7.38-9.09-9.63s-7.83-3.38-12.22-3.38c-4.78,0-9.17,1.16-13.18,3.46-4,2.31-7.2,5.55-9.59,9.72s-3.59,9.09-3.59,14.76,1.2,10.59,3.59,14.76,5.59,7.4,9.59,9.67c4,2.28,8.39,3.42,13.18,3.42,4.39,0,8.46-1.11,12.22-3.34,3.75-2.22,6.78-5.42,9.09-9.59,2.31-4.17,3.46-9.15,3.46-14.93Z"></path><path class="cls-7" d="m1815.06,1048.06h-9.34v-68.47h9.34v12.34h-.42c.22-1.45,1.24-3.29,3.04-5.55s4.27-4.28,7.38-6.09c3.11-1.81,6.78-2.71,11.01-2.71,3.22,0,5.99.4,8.3,1.21,2.31.81,3.91,1.63,4.79,2.46l-4.17,8.09c-.72-.72-2.07-1.45-4.04-2.17-1.97-.72-4.35-1.08-7.13-1.08-3.84,0-7.16,1.28-9.97,3.84s-4.98,5.6-6.5,9.13c-1.53,3.53-2.29,6.77-2.29,9.72v39.28Z"></path><path class="cls-7" d="m1912.56,1048.06v-14.34c-.39,1.5-1.68,3.56-3.88,6.17-2.2,2.61-5.23,4.96-9.09,7.05-3.87,2.08-8.44,3.13-13.72,3.13-6.17,0-11.86-1.43-17.06-4.3-5.2-2.86-9.37-7.01-12.51-12.43-3.14-5.42-4.71-11.91-4.71-19.47s1.57-14.05,4.71-19.47c3.14-5.42,7.31-9.58,12.51-12.47,5.2-2.89,10.88-4.34,17.06-4.34,5.28,0,9.84.99,13.68,2.96,3.84,1.97,6.88,4.24,9.13,6.8,2.25,2.56,3.52,4.7,3.79,6.42v-14.18h9.34v68.47h-9.26Zm-51.54-34.2c0,5.78,1.25,10.76,3.75,14.93,2.5,4.17,5.74,7.37,9.72,9.59,3.97,2.22,8.16,3.34,12.55,3.34,4.84,0,9.15-1.14,12.93-3.42,3.78-2.28,6.77-5.5,8.97-9.67,2.2-4.17,3.29-9.09,3.29-14.76s-1.1-10.59-3.29-14.76c-2.2-4.17-5.19-7.41-8.97-9.72-3.78-2.31-8.09-3.46-12.93-3.46-4.39,0-8.58,1.13-12.55,3.38-3.98,2.25-7.21,5.46-9.72,9.63-2.5,4.17-3.75,9.15-3.75,14.93Z"></path><path class="cls-7" d="m1964.44,977.59c3.17,0,6.16.35,8.97,1.04,2.81.7,5.27,1.56,7.38,2.59,2.11,1.03,3.7,1.96,4.75,2.79l-4.59,6.59c-1.17-1.11-3.2-2.29-6.09-3.54-2.89-1.25-6.14-1.88-9.76-1.88-4.45,0-8.24.92-11.38,2.75-3.14,1.83-4.71,4.5-4.71,8.01s1.58,6.09,4.75,8.09c3.17,2,7.34,3.64,12.51,4.92,3.95,1,7.55,2.25,10.8,3.75,3.25,1.5,5.85,3.54,7.8,6.13,1.95,2.59,2.92,6.02,2.92,10.3,0,3.67-.75,6.83-2.25,9.47-1.5,2.64-3.54,4.79-6.13,6.46-2.59,1.67-5.52,2.92-8.8,3.75-3.28.83-6.73,1.25-10.34,1.25s-7.17-.42-10.34-1.25c-3.17-.83-5.88-1.83-8.13-3s-3.96-2.25-5.13-3.25l4.75-7.42c1.45,1.5,3.82,3.04,7.13,4.63,3.31,1.58,7.19,2.38,11.63,2.38,5.17,0,9.44-1.19,12.8-3.59,3.36-2.39,5.05-5.53,5.05-9.42,0-2.83-.81-5.11-2.42-6.84-1.61-1.72-3.73-3.1-6.34-4.13-2.61-1.03-5.39-1.9-8.34-2.63-2.84-.72-5.55-1.6-8.13-2.63-2.58-1.03-4.88-2.32-6.88-3.88-2-1.56-3.57-3.43-4.71-5.63-1.14-2.2-1.71-4.77-1.71-7.71,0-3.67,1.14-6.85,3.42-9.55,2.28-2.7,5.32-4.8,9.13-6.3,3.81-1.5,7.94-2.25,12.38-2.25Z"></path><path class="cls-7" d="m2073.77,1050.07c-6.17,0-11.76-1.43-16.76-4.3-5-2.86-8.98-7.01-11.93-12.43-2.95-5.42-4.42-11.91-4.42-19.47s1.47-14.05,4.42-19.47c2.95-5.42,6.92-9.58,11.93-12.47,5-2.89,10.59-4.34,16.76-4.34,5.28,0,9.95.97,14.01,2.92,4.06,1.95,7.28,4.18,9.67,6.71,2.39,2.53,3.7,4.71,3.92,6.55v-60.47h9.67v114.76h-9.42v-14.34c-.39,1.78-1.79,3.95-4.21,6.5-2.42,2.56-5.66,4.84-9.72,6.84-4.06,2-8.7,3-13.93,3Zm1.17-8.34c4.84,0,9.26-1.14,13.26-3.42,4-2.28,7.2-5.5,9.59-9.67,2.39-4.17,3.59-9.09,3.59-14.76s-1.2-10.59-3.59-14.76c-2.39-4.17-5.59-7.41-9.59-9.72-4-2.31-8.42-3.46-13.26-3.46-4.34,0-8.38,1.13-12.13,3.38s-6.8,5.46-9.13,9.63c-2.33,4.17-3.5,9.15-3.5,14.93s1.17,10.76,3.5,14.93c2.34,4.17,5.38,7.37,9.13,9.59,3.75,2.22,7.8,3.34,12.13,3.34Z"></path><path class="cls-7" d="m2130.49,1014.95c.05,4.78,1.01,9.26,2.88,13.43,1.86,4.17,4.68,7.53,8.47,10.09,3.78,2.56,8.53,3.84,14.26,3.84,4.67,0,8.58-.76,11.72-2.29,3.14-1.53,5.64-3.31,7.51-5.34,1.86-2.03,3.18-3.85,3.96-5.46l5.92,5.84c-2.06,3.17-4.43,5.88-7.13,8.13-2.7,2.25-5.87,3.96-9.51,5.13-3.64,1.17-7.96,1.75-12.97,1.75-7.29,0-13.5-1.63-18.64-4.88-5.14-3.25-9.06-7.69-11.76-13.3-2.7-5.62-4.04-11.93-4.04-18.93s1.33-12.68,4-18.01,6.52-9.56,11.55-12.68c5.03-3.11,11.11-4.67,18.22-4.67,6.45,0,12.05,1.42,16.81,4.25,4.75,2.84,8.45,6.77,11.09,11.8,2.64,5.03,3.96,10.88,3.96,17.56,0,.5-.01,1.14-.04,1.92-.03.78-.07,1.39-.12,1.83h-56.13Zm46.79-7.92c-.06-3-.79-6.18-2.21-9.55s-3.73-6.23-6.92-8.59c-3.2-2.36-7.58-3.54-13.14-3.54s-10.38,1.16-13.8,3.46c-3.42,2.31-5.91,5.13-7.46,8.46-1.56,3.34-2.5,6.59-2.84,9.76h46.37Z"></path><path class="cls-7" d="m2285.7,1048.06h-11.51l-40.78-110.09h10.51l36.03,99.42,36.28-99.42h10.42l-40.95,110.09Z"></path><path class="cls-7" d="m2346.66,951.82c-2,0-3.71-.71-5.13-2.13s-2.13-3.13-2.13-5.13.72-3.79,2.17-5.21c1.45-1.42,3.14-2.13,5.09-2.13,1.33,0,2.57.33,3.71,1,1.14.67,2.06,1.54,2.75,2.63.69,1.08,1.04,2.32,1.04,3.71,0,2-.74,3.71-2.21,5.13-1.47,1.42-3.24,2.13-5.3,2.13Zm-4.84,96.25v-68.47h9.42v68.47h-9.42Z"></path><path class="cls-7" d="m2404.71,1050.07c-6.17,0-11.76-1.43-16.76-4.3-5-2.86-8.98-7.01-11.93-12.43-2.95-5.42-4.42-11.91-4.42-19.47s1.47-14.05,4.42-19.47c2.95-5.42,6.92-9.58,11.93-12.47,5-2.89,10.59-4.34,16.76-4.34,5.28,0,9.95.97,14.01,2.92,4.06,1.95,7.28,4.18,9.67,6.71,2.39,2.53,3.7,4.71,3.92,6.55v-60.47h9.67v114.76h-9.42v-14.34c-.39,1.78-1.79,3.95-4.21,6.5-2.42,2.56-5.66,4.84-9.72,6.84-4.06,2-8.7,3-13.93,3Zm1.17-8.34c4.84,0,9.26-1.14,13.26-3.42,4-2.28,7.2-5.5,9.59-9.67,2.39-4.17,3.59-9.09,3.59-14.76s-1.2-10.59-3.59-14.76c-2.39-4.17-5.59-7.41-9.59-9.72-4-2.31-8.42-3.46-13.26-3.46-4.34,0-8.38,1.13-12.13,3.38s-6.8,5.46-9.13,9.63c-2.33,4.17-3.5,9.15-3.5,14.93s1.17,10.76,3.5,14.93c2.34,4.17,5.38,7.37,9.13,9.59,3.75,2.22,7.8,3.34,12.13,3.34Z"></path><path class="cls-7" d="m2467.26,1048.06h-9.34v-68.47h9.34v12.34h-.42c.22-1.45,1.24-3.29,3.04-5.55s4.27-4.28,7.38-6.09c3.11-1.81,6.78-2.71,11.01-2.71,3.22,0,5.99.4,8.3,1.21,2.31.81,3.91,1.63,4.79,2.46l-4.17,8.09c-.72-.72-2.07-1.45-4.04-2.17-1.97-.72-4.35-1.08-7.13-1.08-3.84,0-7.16,1.28-9.97,3.84s-4.98,5.6-6.5,9.13c-1.53,3.53-2.29,6.77-2.29,9.72v39.28Z"></path><path class="cls-7" d="m2539.07,1050.07c-6.84,0-12.92-1.6-18.22-4.8-5.31-3.2-9.48-7.52-12.51-12.97-3.03-5.45-4.54-11.54-4.54-18.27s1.51-12.86,4.54-18.39c3.03-5.53,7.2-9.92,12.51-13.18,5.31-3.25,11.38-4.88,18.22-4.88s12.88,1.63,18.14,4.88c5.25,3.25,9.38,7.65,12.38,13.18,3,5.53,4.5,11.66,4.5,18.39s-1.5,12.82-4.5,18.27c-3,5.45-7.13,9.77-12.38,12.97-5.25,3.2-11.3,4.8-18.14,4.8Zm0-8.59c5.17,0,9.69-1.2,13.55-3.59,3.86-2.39,6.87-5.67,9.01-9.84,2.14-4.17,3.21-8.84,3.21-14.01s-1.07-9.94-3.21-14.14c-2.14-4.2-5.14-7.53-9.01-10.01-3.87-2.47-8.38-3.71-13.55-3.71s-9.79,1.24-13.68,3.71c-3.89,2.47-6.92,5.81-9.09,10.01-2.17,4.2-3.25,8.91-3.25,14.14s1.08,9.84,3.25,14.01c2.17,4.17,5.2,7.45,9.09,9.84,3.89,2.39,8.45,3.59,13.68,3.59Z"></path></g></g></g></g></svg>